# xmcd
#
# Track frame offsets: 
#        150
#        1999
#        14461
#        29789
#        43133
#        61670
#        77171
#        91416
#        104950
#        116901
#        130562
#        142922
#        158188
#        168650
#
# Disc length: 2454 seconds
#
# Revision: 0
# Processed by: cddbd v1.5.1PL0 Copyright (c) Steve Scherf et al.
# Submitted via: ExactAudioCopy v0.95a5
#
DISCID=bd09940e
DTITLE=Sportfreunde Stiller - Burli
DYEAR=2003
DGENRE=A Cappella
TTITLE0=Intro
TTITLE1=Laut anhören
TTITLE2=Ein kleiner Schritt
TTITLE3=Ungewöhnlich
TTITLE4=Siehst Du das genauso
TTITLE5=Frühling
TTITLE6=Im Namen der Freundschaft
TTITLE7=Andere Mütter
TTITLE8=Wir kommen
TTITLE9=Was ich behaupten kann
TTITLE10=Dirk, wie ist die Lust dort oben
TTITLE11=Ich Roque
TTITLE12=1. Wahl
TTITLE13=[Wir ziehen durch die Länder]
EXTD=
EXTT0=
EXTT1=
EXTT2=
EXTT3=
EXTT4=
EXTT5=
EXTT6=
EXTT7=
EXTT8=
EXTT9=
EXTT10=
EXTT11=
EXTT12=
EXTT13=
PLAYORDER=
